<svg xmlns="http://www.w3.org/2000/svg" xmlns:xlink="http://www.w3.org/1999/xlink">

	<symbol id="logoPart1" viewBox="0 0 26 26" fill="none">
		<circle cx="13" cy="13" r="13" fill="currentColor"/>
	</symbol>

	<symbol id="logoPart2" viewBox="0 0 26 26" fill="none">
		<path fill-rule="evenodd" clip-rule="evenodd" d="M22 1.5H2V21.5H22V1.5ZM0.5 0V23H23.5V0H0.5Z" fill="currentColor"/>
	</symbol>

	<symbol id="logoPart3" viewBox="0 0 26 26" fill="none">
		<path d="M14.28 0L0 24.75L28.57 24.75L14.28 0Z" fill="currentColor" fill-opacity="1" fill-rule="evenodd"/>
	</symbol>

	<symbol id='accordionArray' viewBox="0 0 22 14" fill="none">
		<path fill-rule="evenodd" clip-rule="evenodd" d="M0 3.37446L2.98752 0.384277L11 8.4039L19.0125 0.384277L22 3.37446L11 14.3843L0 3.37446Z" fill="currentColor"/>
	</symbol>

	<symbol id='openMenu' viewBox="0 0 32 22" fill="none">
		<path fill-rule="evenodd" clip-rule="evenodd" d="M1.31134e-07 -2.79753e-06L32 0L32 1.5L0 1.5L1.31134e-07 -2.79753e-06Z" fill="currentColor"/>
		<path fill-rule="evenodd" clip-rule="evenodd" d="M1.31134e-07 10L32 10L32 11.5L0 11.5L1.31134e-07 10Z" fill="currentColor"/>
		<path fill-rule="evenodd" clip-rule="evenodd" d="M1.31134e-07 20L32 20L32 21.5L0 21.5L1.31134e-07 20Z" fill="currentColor"/>
	</symbol>

	<symbol id="close" viewBox="0 0 24 24">
		<path fill="none" stroke="currentColor" stroke-linecap="round" stroke-linejoin="round" stroke-width="2" d="m21 21l-9-9m0 0L3 3m9 9l9-9m-9 9l-9 9" />
	</symbol>
</svg>